<svg width="77" height="31" viewBox="0 0 77 31" fill="none" xmlns="http://www.w3.org/2000/svg">
<g clip-path="url(#clip0_389_1672)">
<path d="M48.9193 10.1838C48.9193 9.41138 48.4757 8.74662 47.8048 8.44704C47.8495 7.42004 47.6669 6.2031 46.096 5.86142C45.9829 5.83695 45.8598 5.82422 45.709 5.82422C43.4851 5.82422 36.2072 8.6448 34.5985 10.6782C34.2671 11.0973 34.149 11.4987 34.2443 11.8727C34.2919 12.0597 34.3981 12.1899 34.5311 12.2819L32.207 13.0309L31.4706 10.8927C32.6843 10.5676 33.9446 10.224 34.0379 10.1985C34.276 10.1339 34.415 9.89111 34.3495 9.65614C34.284 9.42117 34.0379 9.28411 33.7997 9.34873C33.759 9.35949 29.7668 10.4472 29.087 10.6038C28.5581 10.7262 28.5452 10.7233 27.913 10.5676L27.7036 10.5167C26.8691 10.314 24.677 9.6532 24.6551 9.64635C24.4189 9.57488 24.1699 9.70607 24.0974 9.93908C24.025 10.1721 24.158 10.4178 24.3941 10.4893C24.4854 10.5167 26.6319 11.1648 27.4913 11.3734L27.6977 11.4243C28.0917 11.5212 28.3179 11.5731 28.5591 11.5731C28.7575 11.5731 28.9669 11.5378 29.2904 11.4634C29.5008 11.4145 30.0039 11.2843 30.6063 11.1237L31.3585 13.305L26.615 14.8342C26.4314 14.9028 26.2528 15.0007 26.0851 15.0927C25.7259 14.563 25.186 13.8718 24.4418 13.1787C23.0475 11.8785 20.644 10.3297 17.1142 10.3297C12.4253 10.3297 8.62557 11.951 5.82018 15.1485C3.5705 17.7126 2.59105 20.5733 2.11968 21.9479C2.02639 22.22 1.93014 22.502 1.89044 22.5705C1.81601 22.6998 1.81304 22.8574 1.88151 22.9895C1.94998 23.1217 2.08197 23.2108 2.23181 23.2265C2.24074 23.2265 2.44815 23.249 2.76967 23.249C3.73027 23.249 6.05437 23.0444 6.882 21.1519C8.27031 17.9799 10.1727 13.6349 17.0904 13.6349C19.6407 13.6349 21.7713 15.2435 23.0028 16.4389L22.4997 17.1829C20.9636 15.5019 18.7407 14.4426 16.2717 14.4426C11.6483 14.4426 7.88627 18.1541 7.88627 22.7154C7.88627 23.0728 7.91207 23.4242 7.95672 23.7689L5.04812 23.8041C4.80202 23.809 4.60553 24.0224 4.61049 24.2652C4.61545 24.5051 4.76828 24.6314 5.06599 24.6235C5.3627 24.6157 8.10558 24.5873 8.10558 24.5873C8.18893 24.9417 8.29512 25.2883 8.42313 25.6241L5.04912 25.6643C4.80301 25.6682 4.60652 25.8816 4.61049 26.1244C4.61446 26.3652 4.75042 26.4837 5.06499 26.4837C5.37957 26.4837 8.78832 26.4485 8.78832 26.4485C9.2319 27.311 9.82235 28.0668 10.5299 28.7521H0.446561C0.199464 28.7521 0 28.9489 0 29.1927C0 29.4365 0.199464 29.6332 0.446561 29.6332H11.557C11.5858 29.6332 11.6146 29.6215 11.6423 29.6166C12.9701 30.487 14.5609 31 16.2707 31C17.9805 31 19.5614 30.5144 20.8861 29.6332H28.1294C28.3765 29.6332 28.5759 29.4365 28.5759 29.1927C28.5759 28.9489 28.3765 28.7521 28.1294 28.7521H22.0125C22.7875 27.9689 23.4236 27.1622 23.8771 26.1988L26.2488 26.1636C26.3064 27.1661 27.1489 27.9689 28.179 27.9689H41.5629L41.676 27.8867C41.7018 27.87 44.2314 26.1959 45.0977 25.6319C45.9521 25.0759 46.492 24.1389 46.7529 22.8525L48.9202 10.221V10.1838H48.9193ZM35.3061 11.2206C36.7262 9.42607 43.7332 6.70535 45.7159 6.70535C45.8211 6.70535 45.8836 6.71416 45.9174 6.72101C47.0258 6.96185 47.0179 7.81361 46.881 9.08537C46.8671 9.21362 46.8542 9.33698 46.8442 9.4525C46.7063 11.0591 46.0881 11.3734 45.0659 11.3734C44.6164 11.3734 44.0954 11.3068 43.5437 11.2373C42.8579 11.1501 42.076 11.0493 41.288 11.065C40.0744 11.0865 38.8111 11.2539 37.6967 11.4018C36.8135 11.5192 36.0504 11.6201 35.5254 11.6201C35.3021 11.6201 35.1771 11.6005 35.1126 11.5848C35.1275 11.4908 35.1959 11.3616 35.3071 11.2206H35.3061ZM11.7426 25.5673C11.5322 25.2433 11.3555 24.8967 11.2196 24.5305L21.3873 24.3406C21.2642 24.7166 21.1005 25.0739 20.899 25.4077L11.7426 25.5673ZM20.2729 26.2517C19.2885 27.3355 17.8595 28.0188 16.2707 28.0188C14.6819 28.0188 13.371 27.3893 12.3926 26.3819L20.2729 26.2517ZM10.8961 22.7154C10.8961 19.7911 13.3075 17.412 16.2717 17.412C18.1363 17.412 19.7807 18.3538 20.7452 19.7793L19.4224 21.7364C19.4016 21.7677 19.3867 21.801 19.3738 21.8343L14.8119 21.7031C14.5628 21.6992 14.3594 21.8872 14.3525 22.1309C14.3455 22.3737 14.539 22.5774 14.7861 22.5842L21.6006 22.78C21.6006 22.78 21.6096 22.78 21.6135 22.78C21.6245 22.78 21.6344 22.7781 21.6453 22.7771C21.6423 23.0228 21.6235 23.2647 21.5877 23.5016L10.9923 23.7091C10.9298 23.387 10.8961 23.0551 10.8961 22.7144V22.7154ZM21.8011 19.8057L22.5533 18.6936C22.729 18.9599 22.8887 19.2359 23.0296 19.5248L22.2715 20.9248C22.1514 20.5341 21.9936 20.1601 21.8011 19.8067V19.8057ZM21.5828 21.8979L20.4098 21.8646L21.2255 20.6575C21.3932 21.0491 21.5153 21.4652 21.5828 21.8979ZM22.3241 24.322L23.5893 24.2985C23.508 24.6656 23.3988 25.021 23.2638 25.3657L21.9232 25.3891C22.0889 25.0494 22.2229 24.6921 22.3241 24.322ZM22.4898 23.484C22.5216 23.2314 22.5404 22.9758 22.5404 22.7144C22.5404 22.5823 22.5345 22.4521 22.5265 22.3218L23.4534 20.6095C23.6548 21.2772 23.764 21.9831 23.764 22.7135C23.764 22.9651 23.7511 23.2137 23.7263 23.4585L22.4898 23.483V23.484ZM24.022 19.56L24.933 17.878L25.8202 23.4193L24.6234 23.4428C24.6442 23.203 24.6581 22.9612 24.6581 22.7154C24.6581 21.5983 24.4308 20.5332 24.023 19.56H24.022ZM9.4016 15.453C7.81978 16.9607 6.91971 18.8443 6.06231 20.8024C5.48079 22.1319 3.77294 22.3453 2.92051 22.3659C2.93539 22.3228 2.95028 22.2778 2.96715 22.2298C3.90096 19.5042 6.74108 11.2108 17.1162 11.2108C19.7023 11.2108 21.9519 12.0802 23.8047 13.7965C24.7861 14.706 25.3915 15.6253 25.6663 16.0952L24.5986 16.8471C23.7302 15.7937 20.8941 12.7528 17.0904 12.7528C13.8216 12.7528 11.3069 13.6359 9.4016 15.452V15.453ZM23.633 17.0948C23.8374 17.3219 23.9833 17.5021 24.0667 17.6078L23.5348 18.5898C23.3968 18.3538 23.247 18.1247 23.0862 17.9045L23.633 17.0958V17.0948ZM8.77939 22.7154C8.77939 18.6397 12.1405 15.3237 16.2717 15.3237C18.5601 15.3237 20.6113 16.3429 21.9867 17.9426L21.2752 18.9951C20.13 17.4991 18.313 16.5309 16.2717 16.5309C12.8153 16.5309 10.003 19.3055 10.003 22.7154C10.003 23.06 10.0327 23.3978 10.0883 23.7277L8.85381 23.7522C8.80519 23.4135 8.77839 23.0679 8.77839 22.7164L8.77939 22.7154ZM9.01855 24.5707L10.2838 24.5472C10.3979 24.9084 10.5458 25.255 10.7214 25.585L9.37778 25.6084C9.23289 25.2746 9.11282 24.928 9.01855 24.5707ZM16.2717 30.1071C13.51 30.1071 11.0946 28.6248 9.79556 26.425L11.2414 26.4015C12.3846 27.917 14.2145 28.9009 16.2717 28.9009C18.3288 28.9009 20.2907 27.8436 21.424 26.2331L22.8728 26.2096C21.6076 28.5279 19.1237 30.1081 16.2717 30.1081V30.1071ZM24.5043 24.2819L25.9531 24.2545L26.1228 25.3157L24.2185 25.349C24.3366 25.0024 24.4328 24.6461 24.5043 24.2809V24.2819ZM45.9005 22.6841C45.6852 23.7434 45.2604 24.4747 44.6055 24.9016C43.8433 25.398 41.7961 26.6971 41.292 27.0887H28.18C27.6372 27.0887 27.1906 26.6687 27.143 26.1459L40.1954 25.9257L40.3135 25.9462L40.4148 25.8865C40.518 25.8258 42.9542 24.4052 43.8175 23.8119C44.795 23.1393 45.0501 22.5245 45.2009 21.5553C45.6594 18.5898 46.5892 13.6271 46.5981 13.5772C46.6428 13.3383 46.483 13.1082 46.2399 13.0641C45.9968 13.0191 45.7646 13.1787 45.7199 13.4176C45.711 13.4675 44.7791 18.4439 44.3177 21.4231C44.1917 22.2396 44.0279 22.596 43.3065 23.0923C42.5682 23.6005 40.5388 24.7949 40.0615 25.0739L27.0249 25.301L26.8552 24.2388L39.8005 23.997L39.9057 24.0195L39.999 23.9705C40.0605 23.9392 41.5073 23.1873 42.3786 22.5881L42.5047 22.502C43.3601 21.9204 43.4454 21.7374 43.8096 19.7049C44.3415 16.7394 44.8099 13.724 44.8139 13.6946C44.8516 13.4538 44.6839 13.2296 44.4398 13.1924C44.1966 13.1562 43.9684 13.3206 43.9307 13.5615C43.9257 13.5918 43.4593 16.5975 42.9294 19.5522C42.6049 21.3644 42.593 21.3732 41.9966 21.7785L41.8666 21.8686C41.162 22.3532 40.0079 22.9729 39.6745 23.1491L26.7202 23.4027L25.7179 17.1428L26.5039 16.5886C26.6785 16.4653 26.7401 16.2362 26.6488 16.0443C26.6428 16.0316 26.6061 15.9552 26.5376 15.8309C26.5674 15.8123 26.5992 15.7937 26.6329 15.7741L26.7619 15.7173L31.6463 14.1421L32.2278 15.8299C32.0333 16.1324 31.8835 16.4575 31.7981 16.7854L30.9229 20.261L30.9179 20.2816C30.8127 20.8034 30.9318 21.3272 31.2454 21.7041C31.557 22.079 32.0194 22.2935 32.5483 22.2935H35.6246C36.6646 22.2935 37.6411 21.4848 37.8485 20.4588L38.8369 15.3668C38.9421 14.845 38.823 14.3359 38.5094 13.959C38.1978 13.584 37.7354 13.3843 37.2065 13.3843H37.136L33.9882 14.378C33.6072 14.5043 33.2311 14.7373 32.8967 15.0418L32.4938 13.8709L37.1678 12.3632C37.3752 12.3367 37.5895 12.3074 37.8128 12.278C38.9034 12.1331 40.1389 11.9696 41.3009 11.949C42.0253 11.9363 42.7389 12.0274 43.4266 12.1145C44.0081 12.1879 44.5569 12.2584 45.063 12.2584C46.747 12.2584 47.5696 11.4174 47.7314 9.53082C47.7344 9.4995 47.7374 9.46621 47.7403 9.43488C47.9378 9.61502 48.0638 9.86957 48.0738 10.1535L45.8985 22.688L45.9005 22.6841ZM32.6634 17.0008C32.8609 16.2489 33.5982 15.4256 34.2681 15.2043L37.271 14.2488C37.4992 14.2625 37.6917 14.3525 37.8187 14.5053C37.9636 14.6795 38.0142 14.9223 37.9597 15.1916L36.9713 20.2874C36.8492 20.8915 36.232 21.4094 35.6236 21.4094H32.5473C32.2913 21.4094 32.074 21.3095 31.9351 21.1421C31.7912 20.9698 31.7406 20.726 31.7912 20.4646L32.6625 16.9998L32.6634 17.0008Z" fill="#FF6F00"/>
<path d="M28.6593 15.7321C27.4466 15.7321 26.4592 16.7052 26.4592 17.9026C26.4592 19.0999 27.4456 20.0731 28.6593 20.0731C29.8729 20.0731 30.8593 19.0999 30.8593 17.9026C30.8593 16.7052 29.8729 15.7321 28.6593 15.7321ZM28.6593 19.191C27.9388 19.191 27.3524 18.6124 27.3524 17.9016C27.3524 17.1908 27.9388 16.6122 28.6593 16.6122C29.3797 16.6122 29.9662 17.1908 29.9662 17.9016C29.9662 18.6124 29.3797 19.191 28.6593 19.191Z" fill="#FF6F00"/>
<path d="M28.5967 20.447C27.9606 20.447 27.4426 20.9581 27.4426 21.5856C27.4426 22.2132 27.9606 22.7242 28.5967 22.7242C29.2328 22.7242 29.7508 22.2132 29.7508 21.5856C29.7508 20.9581 29.2328 20.447 28.5967 20.447ZM28.5967 21.8421C28.4528 21.8421 28.3357 21.7266 28.3357 21.5847C28.3357 21.4427 28.4528 21.3272 28.5967 21.3272C28.7406 21.3272 28.8577 21.4427 28.8577 21.5847C28.8577 21.7266 28.7406 21.8421 28.5967 21.8421Z" fill="#FF6F00"/>
<path d="M49.8034 5.3269L53.2389 10.5197C53.3233 10.6469 53.4652 10.7194 53.6131 10.7194C53.6577 10.7194 53.7024 10.7125 53.747 10.6988C53.9376 10.6401 54.0656 10.4619 54.0596 10.2651L53.8016 2.04519C53.7976 1.91988 53.7401 1.80239 53.6428 1.72211C53.5456 1.64183 53.4186 1.60561 53.2935 1.62225C49.5623 2.13526 49.73 5.08704 49.732 5.11739C49.7369 5.19179 49.7617 5.26424 49.8034 5.3269ZM52.9244 2.58464L53.1169 8.72315L50.6221 4.95291C50.636 4.54172 50.8325 3.06828 52.9244 2.58464Z" fill="#FF6F00"/>
<path d="M42.6426 13.1758C42.4005 13.1366 42.1693 13.2972 42.1276 13.5371L40.9367 20.4882C40.8961 20.728 41.0598 20.9552 41.3029 20.9963C41.3277 21.0002 41.3535 21.0022 41.3783 21.0022C41.5927 21.0022 41.7812 20.8504 41.818 20.635L43.0088 13.6839C43.0495 13.4441 42.8857 13.2169 42.6426 13.1758Z" fill="#FF6F00"/>
<path d="M40.6609 13.1768C40.4177 13.1337 40.1865 13.2952 40.1438 13.5341L38.7049 21.6111C38.6622 21.851 38.825 22.0791 39.0671 22.1212C39.0929 22.1261 39.1197 22.128 39.1445 22.128C39.3569 22.128 39.5454 21.9773 39.5841 21.7638L41.0231 13.6868C41.0657 13.447 40.903 13.2189 40.6609 13.1768Z" fill="#FF6F00"/>
<path d="M76.5534 28.7521H66.0046C67.905 27.1857 69.1137 24.7812 69.1137 22.1358C69.1137 17.3582 65.174 13.4675 60.3313 13.4675C58.548 13.4675 56.8878 13.9932 55.5005 14.8979L55.047 14.2801C56.7013 13.3402 58.3972 12.8615 60.0922 12.8615C63.9673 12.8615 66.6159 15.3688 66.6417 15.3933C66.7548 15.5029 66.9196 15.545 67.0724 15.5039L68.8835 15.0144C69.0303 14.9752 69.1464 14.8646 69.1911 14.7216C69.2367 14.5787 69.205 14.423 69.1077 14.3075C68.9529 14.1244 65.2613 9.82943 59.7339 9.82943C57.5478 9.82943 55.3735 10.5157 53.2717 11.8678L44.8863 0.471859C44.7672 0.304445 44.5409 0.0929741 44.1321 0.022484C42.3895 -0.275141 38.3923 2.50726 37.9417 2.82545C37.7413 2.96741 37.6956 3.24251 37.8385 3.44028C37.9824 3.63804 38.2613 3.68308 38.4617 3.5421C40.0445 2.42307 42.9432 0.713679 43.9783 0.890883C44.1083 0.913401 44.141 0.960395 44.1539 0.978017L52.5393 12.372C48.9956 14.9693 47.9338 18.3137 47.6797 20.725C47.39 23.4781 48.0519 25.584 48.0797 25.6721C48.1382 25.8561 48.3109 25.9795 48.5054 25.9795C48.5104 25.9795 48.5163 25.9795 48.5213 25.9795L50.3403 25.9139C50.4703 25.909 50.5923 25.8483 50.6727 25.7485C50.7541 25.6476 50.7868 25.5174 50.762 25.3911C50.758 25.3715 50.3879 23.3978 50.7332 21.0471C51.1441 18.252 52.3399 16.1393 54.2918 14.7559L54.7801 15.4187C52.8083 17.0087 51.547 19.4347 51.547 22.1368C51.547 24.8389 52.7557 27.1866 54.656 28.7531H48.6691C48.422 28.7531 48.2226 28.9499 48.2226 29.1937C48.2226 29.4374 48.422 29.6342 48.6691 29.6342H55.9183C57.2153 30.3195 58.7227 30.8012 60.3293 30.8012C61.936 30.8012 63.4811 30.3656 64.79 29.6019C64.8386 29.6195 64.8902 29.6342 64.9438 29.6342H76.5514C76.7985 29.6342 76.998 29.4374 76.998 29.1937C76.998 28.9499 76.7985 28.7531 76.5514 28.7531L76.5534 28.7521ZM59.7349 10.7096C63.7371 10.7096 66.7846 13.2453 67.9298 14.3574L67.0744 14.5885C66.3619 13.9737 63.7659 11.9784 60.0922 11.9784C58.2106 11.9784 56.3351 12.511 54.5191 13.5605L53.7986 12.5815C55.7417 11.341 57.7383 10.7096 59.7359 10.7096H59.7349ZM49.8471 20.9463C49.588 22.734 49.7121 24.2848 49.8093 25.0504L48.8448 25.0847C48.681 24.4199 48.3605 22.7859 48.5679 20.8141C48.9043 17.6176 50.4157 15.0202 53.0633 13.0827L53.7698 14.0422C51.6333 15.5665 50.2837 17.9348 49.8471 20.9463ZM52.4421 22.127C52.4421 19.7166 53.5585 17.5598 55.307 16.1305L56.2239 17.3768C54.8634 18.5232 53.9981 20.2267 53.9981 22.127C53.9981 25.5722 56.8392 28.3752 60.3313 28.3752C63.8234 28.3752 66.6645 25.5722 66.6645 22.127C66.6645 18.6818 63.8234 15.8789 60.3313 15.8789C59.0849 15.8789 57.9229 16.2372 56.9414 16.853L56.0265 15.6096C57.2649 14.8107 58.7435 14.3437 60.3313 14.3437C64.6818 14.3437 68.2206 17.835 68.2206 22.127C68.2206 26.4191 64.6818 29.9103 60.3313 29.9103C55.9808 29.9103 52.4421 26.4191 52.4421 22.127ZM60.3313 21.2831C60.8027 21.2831 61.1867 21.662 61.1867 22.127C61.1867 22.5921 60.8027 22.9709 60.3313 22.9709C59.8599 22.9709 59.4759 22.5921 59.4759 22.127C59.4759 21.662 59.8599 21.2831 60.3313 21.2831ZM60.3313 23.8521C61.2949 23.8521 62.0799 23.0786 62.0799 22.127C62.0799 21.1754 61.2959 20.402 60.3313 20.402C60.0912 20.402 59.8619 20.4499 59.6535 20.5371L58.9599 19.5952C59.3687 19.3789 59.8361 19.2555 60.3313 19.2555C61.936 19.2555 63.2419 20.5439 63.2419 22.127C63.2419 23.7101 61.936 24.9985 60.3313 24.9985C58.7267 24.9985 57.4207 23.7101 57.4207 22.127C57.4207 21.3497 57.7363 20.6428 58.2474 20.1259L58.948 21.0775C58.7207 21.3683 58.5838 21.7325 58.5838 22.127C58.5838 23.0777 59.3677 23.8521 60.3323 23.8521H60.3313ZM56.5276 22.127C56.5276 24.1967 58.2345 25.8796 60.3313 25.8796C62.4292 25.8796 64.135 24.1957 64.135 22.127C64.135 20.0583 62.4282 18.3744 60.3313 18.3744C59.6396 18.3744 58.9916 18.5585 58.4319 18.8776L57.4674 17.5667C58.3 17.0556 59.2814 16.76 60.3313 16.76C63.3312 16.76 65.7714 19.1674 65.7714 22.127C65.7714 25.0866 63.3312 27.4941 60.3313 27.4941C57.3314 27.4941 54.8912 25.0866 54.8912 22.127C54.8912 20.5195 55.6117 19.0764 56.7499 18.0915L57.7165 19.4043C56.9851 20.0887 56.5276 21.055 56.5276 22.126V22.127Z" fill="#FF6F00"/>
</g>
<defs>
<clipPath id="clip0_389_1672">
<rect width="77" height="31" fill="white"/>
</clipPath>
</defs>
</svg>
