<svg width="73" height="25" viewBox="0 0 73 25" fill="none" xmlns="http://www.w3.org/2000/svg">
<g clip-path="url(#clip0_389_1322)">
<path d="M24.5647 23.8523H20.3436C21.8383 22.7797 22.8109 21.0553 22.8109 19.1141C22.8109 15.8685 20.096 13.2283 16.7588 13.2283C13.4215 13.2283 10.7067 15.8685 10.7067 19.1141C10.7067 21.0553 11.6785 22.7797 13.1739 23.8523H0.347068C0.155024 23.8523 0 24.0031 0 24.1899C0 24.3766 0.155024 24.5274 0.347068 24.5274H14.384C15.1137 24.8312 15.9158 24.9999 16.758 24.9999C17.6002 24.9999 18.4031 24.8312 19.1327 24.5274H24.5647C24.7568 24.5274 24.9118 24.3766 24.9118 24.1899C24.9118 24.0031 24.7568 23.8523 24.5647 23.8523ZM11.4 19.1141C11.4 16.2406 13.8033 13.9033 16.758 13.9033C19.7127 13.9033 22.116 16.2406 22.116 19.1141C22.116 21.9876 19.7127 24.3249 16.758 24.3249C13.8033 24.3249 11.4 21.9876 11.4 19.1141Z" fill="#FF6F00"/>
<path d="M72.2287 23.8523H64.1513C65.646 22.7797 66.6186 21.0553 66.6186 19.1141C66.6186 15.8685 63.9037 13.2283 60.5665 13.2283C57.2292 13.2283 54.5144 15.8685 54.5144 19.1141C54.5144 21.0553 55.4862 22.7797 56.9816 23.8523H48.0119C47.8198 23.8523 47.6648 24.0031 47.6648 24.1899C47.6648 24.3766 47.8198 24.5274 48.0119 24.5274H58.1925C58.9221 24.8312 59.7243 24.9999 60.5665 24.9999C61.4087 24.9999 62.2116 24.8312 62.9412 24.5274H72.2295C72.4216 24.5274 72.5766 24.3766 72.5766 24.1899C72.5766 24.0031 72.4216 23.8523 72.2295 23.8523H72.2287ZM55.2077 19.1141C55.2077 16.2406 57.611 13.9033 60.5657 13.9033C63.5204 13.9033 65.9237 16.2406 65.9237 19.1141C65.9237 21.9876 63.5204 24.3249 60.5657 24.3249C57.611 24.3249 55.2077 21.9876 55.2077 19.1141Z" fill="#FF6F00"/>
<path d="M53.2557 8.92591C53.2557 8.73914 53.1007 8.58838 52.9086 8.58838C52.7166 8.58838 52.5616 8.73914 52.5616 8.92591V13.8014C52.5616 13.8082 52.5616 13.8157 52.5616 13.8224C52.5616 13.8299 52.6009 14.5717 52.1235 15.0638C51.8258 15.3706 51.3761 15.5266 50.7869 15.5266H44.3854C44.1934 15.5266 44.0383 15.6773 44.0383 15.8641C44.0383 16.0509 44.1934 16.2016 44.3854 16.2016H50.7869C51.5782 16.2016 52.1998 15.9729 52.6341 15.5213C53.2819 14.8478 53.2611 13.9207 53.2549 13.7924V8.92591H53.2557Z" fill="#FF6F00"/>
<path d="M34.9767 5.88806V2.96277C34.9767 2.15644 34.3019 1.50012 33.4728 1.50012H29.8478C29.0187 1.50012 28.3439 2.15644 28.3439 2.96277V5.88806C28.3439 6.69439 29.0187 7.35071 29.8478 7.35071H33.4728C34.3019 7.35071 34.9767 6.69439 34.9767 5.88806ZM29.038 5.88806V2.96277C29.038 2.52847 29.4013 2.17519 29.8478 2.17519H33.4728C33.9193 2.17519 34.2826 2.52847 34.2826 2.96277V5.88806C34.2826 6.32235 33.9193 6.67564 33.4728 6.67564H29.8478C29.4013 6.67564 29.038 6.32235 29.038 5.88806Z" fill="#FF6F00"/>
<path d="M39.5658 7.35071H48.8981C49.458 7.35071 49.8938 7.10393 50.0634 6.69064C50.2671 6.19259 50.0465 5.59703 49.458 5.05548C49.4541 5.05173 49.4503 5.04873 49.4464 5.04573L46.6707 2.70849C45.4667 1.68689 44.7225 1.50012 43.692 1.50012H39.5658C38.7367 1.50012 38.0618 2.15644 38.0618 2.96277V5.88806C38.0618 6.69439 38.7367 7.35071 39.5658 7.35071ZM38.756 2.96277C38.756 2.52847 39.1192 2.17519 39.5658 2.17519H43.692C44.5867 2.17519 45.1636 2.32595 46.2156 3.21779L48.986 5.55053C49.4125 5.94507 49.485 6.27585 49.4179 6.44087C49.3577 6.58788 49.1634 6.67564 48.8981 6.67564H39.5658C39.1192 6.67564 38.756 6.32235 38.756 5.88806V2.96277Z" fill="#FF6F00"/>
<path d="M40.9155 8.5509H38.5246C38.3325 8.5509 38.1775 8.70167 38.1775 8.88844C38.1775 9.07521 38.3325 9.22597 38.5246 9.22597H40.9155C41.1075 9.22597 41.2625 9.07521 41.2625 8.88844C41.2625 8.70167 41.1075 8.5509 40.9155 8.5509Z" fill="#FF6F00"/>
<path d="M34.6297 8.88844C34.6297 8.70167 34.4746 8.5509 34.2826 8.5509H31.8917C31.6996 8.5509 31.5446 8.70167 31.5446 8.88844C31.5446 9.07521 31.6996 9.22597 31.8917 9.22597H34.2826C34.4746 9.22597 34.6297 9.07521 34.6297 8.88844Z" fill="#FF6F00"/>
<path d="M71.7544 14.5732L71.3796 9.54321C71.3325 8.79688 70.7479 8.21857 69.925 8.10456C69.9203 8.10456 69.9149 8.10306 69.9103 8.10306L54.357 6.59391L47.5051 1.20762C46.8395 0.609061 45.8916 0 43.9226 0H28.0732C27.2441 0 26.5692 0.656316 26.5692 1.46265V5.40054H3.39353C2.56443 5.40054 1.88957 6.05686 1.88957 6.86319V13.2763H1.85101C1.0219 13.2763 0.347046 13.9326 0.347046 14.739V17.5143C0.347046 18.3206 1.0219 18.9769 1.85101 18.9769H9.69089C9.88294 18.9769 10.038 18.8261 10.038 18.6394C10.038 15.0173 12.806 12.389 16.6207 12.389C20.0667 12.389 23.7294 14.58 23.7294 18.6394C23.7294 18.8261 23.8844 18.9769 24.0765 18.9769H53.3436C53.5341 18.9769 53.6891 18.8269 53.6907 18.6416C53.7122 15.2903 56.8042 12.5638 60.5827 12.5638C64.3611 12.5638 67.4531 15.2903 67.4747 18.6416C67.4762 18.8269 67.6312 18.9769 67.8217 18.9769H71.496C72.3251 18.9769 73 18.3206 73 17.5143V16.0141C73 15.2933 72.4609 14.6925 71.7544 14.5732ZM72.3058 17.5143C72.3058 17.9485 71.9426 18.3018 71.496 18.3018H68.1572C67.9382 14.736 64.6156 11.8887 60.5827 11.8887C56.5497 11.8887 53.2263 14.736 53.0081 18.3018H24.4151C24.3241 16.4349 23.4772 14.7592 22.008 13.5546C20.5811 12.3852 18.6183 11.7139 16.6207 11.7139C14.6231 11.7139 12.813 12.3852 11.4825 13.6041C10.1822 14.7952 9.43329 16.4529 9.35154 18.3018H1.85101C1.40445 18.3018 1.04118 17.9485 1.04118 17.5143V14.739C1.04118 14.3047 1.40445 13.9514 1.85101 13.9514H5.43738C5.62942 13.9514 5.78445 13.8006 5.78445 13.6139C5.78445 13.4271 5.62942 13.2763 5.43738 13.2763H4.58899V8.81338C4.58899 8.62661 4.43397 8.47585 4.24192 8.47585H3.20072C3.00867 8.47585 2.85365 8.62661 2.85365 8.81338C2.85365 9.00015 3.00867 9.15092 3.20072 9.15092H3.89485V13.2763H2.58371V6.86319C2.58371 6.42889 2.94697 6.07561 3.39353 6.07561H26.917C27.1091 6.07561 27.2641 5.92484 27.2641 5.73807V1.46265C27.2641 1.02835 27.6274 0.675068 28.0739 0.675068H36.1336V13.4766C36.1336 14.3129 36.0087 14.8132 35.7279 15.1005C35.4356 15.3998 34.8904 15.5393 34.0127 15.5393C33.8206 15.5393 33.6656 15.6901 33.6656 15.8768C33.6656 16.0636 33.8206 16.2144 34.0127 16.2144C36.0912 16.2144 36.8278 15.4981 36.8278 13.4766V0.675068H43.9234C45.6556 0.675068 46.4462 1.17237 47.0424 1.71017C47.0478 1.71542 47.0539 1.72067 47.0601 1.72517L54.0015 7.18197C54.0539 7.22322 54.1179 7.24873 54.185 7.25548L69.8339 8.77363C70.326 8.84414 70.66 9.16217 70.687 9.58821L70.744 10.351H70.0306C69.8386 10.351 69.6835 10.5018 69.6835 10.6886V13.6514C69.6835 13.8381 69.8386 13.9889 70.0306 13.9889C70.2227 13.9889 70.3777 13.8381 70.3777 13.6514V11.0261H70.7942L71.0564 14.5515H69.375C69.183 14.5515 69.028 14.7022 69.028 14.889C69.028 15.0758 69.183 15.2265 69.375 15.2265H71.496C71.9426 15.2265 72.3058 15.5798 72.3058 16.0141V17.5143Z" fill="#FF6F00"/>
<path d="M16.5953 8.76308C14.6394 8.76308 12.7829 9.32414 11.2273 10.3855C9.71639 11.4161 8.58957 12.8817 8.05432 14.5117C7.9957 14.6894 8.09674 14.8792 8.27953 14.9362C8.315 14.9474 8.35048 14.9519 8.38519 14.9519C8.5325 14.9519 8.66824 14.8604 8.71606 14.7172C9.73798 11.6089 12.9781 9.43815 16.596 9.43815C19.0517 9.43815 21.3594 10.4117 22.9266 12.1099C23.0546 12.2487 23.2744 12.2599 23.4171 12.1354C23.5598 12.0109 23.5713 11.7971 23.4433 11.6584C21.7442 9.81843 19.2484 8.76233 16.596 8.76233L16.5953 8.76308Z" fill="#FF6F00"/>
<path d="M60.7114 9.88818C58.3645 9.88818 56.1494 10.7043 54.4742 12.1872C54.3323 12.3124 54.3223 12.5262 54.4511 12.6642C54.5799 12.8022 54.7997 12.812 54.9416 12.6867C56.4888 11.3178 58.538 10.564 60.7114 10.564C63.4024 10.564 65.9267 11.7491 67.4638 13.7338C67.5317 13.8216 67.6358 13.8681 67.7415 13.8681C67.814 13.8681 67.8873 13.8463 67.9497 13.7998C68.1032 13.6873 68.1333 13.4758 68.0184 13.3273C66.3509 11.1738 63.6191 9.88818 60.7114 9.88818Z" fill="#FF6F00"/>
<path d="M16.758 15.6781C14.8098 15.6781 13.2249 17.2195 13.2249 19.1142C13.2249 21.0089 14.8098 22.5503 16.758 22.5503C18.7062 22.5503 20.2912 21.0089 20.2912 19.1142C20.2912 17.2195 18.7062 15.6781 16.758 15.6781ZM16.758 21.8745C15.1931 21.8745 13.919 20.6361 13.919 19.1134C13.919 17.5908 15.1923 16.3524 16.758 16.3524C18.3237 16.3524 19.597 17.5908 19.597 19.1134C19.597 20.6361 18.3237 21.8745 16.758 21.8745Z" fill="#FF6F00"/>
<path d="M16.7364 19.8215C16.5444 19.8215 16.3893 19.9723 16.3893 20.1591V21.0322C16.3893 21.2189 16.5444 21.3697 16.7364 21.3697C16.9285 21.3697 17.0835 21.2189 17.0835 21.0322V20.1591C17.0835 19.9723 16.9285 19.8215 16.7364 19.8215Z" fill="#FF6F00"/>
<path d="M17.7684 19.6069C17.6326 19.4749 17.4128 19.4749 17.2778 19.6069C17.1421 19.739 17.1421 19.9527 17.2778 20.084L17.9126 20.7013C17.9805 20.7673 18.0691 20.8003 18.1578 20.8003C18.2465 20.8003 18.3352 20.7673 18.4031 20.7013C18.5388 20.5693 18.5388 20.3555 18.4031 20.2243L17.7684 19.6069Z" fill="#FF6F00"/>
<path d="M17.8355 18.7518C17.6434 18.7518 17.4884 18.9026 17.4884 19.0894C17.4884 19.2761 17.6434 19.4269 17.8355 19.4269H18.7332C18.9253 19.4269 19.0803 19.2761 19.0803 19.0894C19.0803 18.9026 18.9253 18.7518 18.7332 18.7518H17.8355Z" fill="#FF6F00"/>
<path d="M17.5131 18.6903C17.6018 18.6903 17.6905 18.6573 17.7583 18.5913L18.3931 17.974C18.5288 17.842 18.5288 17.6282 18.3931 17.497C18.2574 17.3649 18.0375 17.3649 17.9026 17.497L17.2678 18.1143C17.1321 18.2463 17.1321 18.4601 17.2678 18.5913C17.3357 18.6573 17.4244 18.6903 17.5131 18.6903Z" fill="#FF6F00"/>
<path d="M16.7364 16.8376C16.5444 16.8376 16.3893 16.9884 16.3893 17.1752V18.0483C16.3893 18.235 16.5444 18.3858 16.7364 18.3858C16.9285 18.3858 17.0835 18.235 17.0835 18.0483V17.1752C17.0835 16.9884 16.9285 16.8376 16.7364 16.8376Z" fill="#FF6F00"/>
<path d="M15.7337 18.6011C15.8016 18.6671 15.8903 18.7001 15.979 18.7001C16.0677 18.7001 16.1564 18.6671 16.2243 18.6011C16.36 18.4691 16.36 18.2553 16.2243 18.124L15.5895 17.5067C15.4538 17.3747 15.234 17.3747 15.099 17.5067C14.9633 17.6387 14.9633 17.8525 15.099 17.9838L15.7337 18.6011Z" fill="#FF6F00"/>
<path d="M16.013 19.0894C16.013 18.9026 15.8579 18.7518 15.6659 18.7518H14.7681C14.5761 18.7518 14.4211 18.9026 14.4211 19.0894C14.4211 19.2761 14.5761 19.4269 14.7681 19.4269H15.6659C15.8579 19.4269 16.013 19.2761 16.013 19.0894Z" fill="#FF6F00"/>
<path d="M15.743 19.616L15.1083 20.2333C14.9725 20.3653 14.9725 20.5791 15.1083 20.7103C15.1761 20.7763 15.2648 20.8093 15.3535 20.8093C15.4422 20.8093 15.5309 20.7763 15.5988 20.7103L16.2335 20.093C16.3693 19.961 16.3693 19.7472 16.2335 19.616C16.0978 19.484 15.878 19.484 15.743 19.616Z" fill="#FF6F00"/>
<path d="M60.5657 15.6781C58.6175 15.6781 57.0325 17.2195 57.0325 19.1142C57.0325 21.0089 58.6175 22.5503 60.5657 22.5503C62.5139 22.5503 64.0988 21.0089 64.0988 19.1142C64.0988 17.2195 62.5139 15.6781 60.5657 15.6781ZM60.5657 21.8745C59.0008 21.8745 57.7267 20.6361 57.7267 19.1134C57.7267 17.5908 59 16.3524 60.5657 16.3524C62.1314 16.3524 63.4047 17.5908 63.4047 19.1134C63.4047 20.6361 62.1314 21.8745 60.5657 21.8745Z" fill="#FF6F00"/>
<path d="M60.5441 19.8215C60.352 19.8215 60.197 19.9723 60.197 20.1591V21.0322C60.197 21.2189 60.352 21.3697 60.5441 21.3697C60.7361 21.3697 60.8912 21.2189 60.8912 21.0322V20.1591C60.8912 19.9723 60.7361 19.8215 60.5441 19.8215Z" fill="#FF6F00"/>
<path d="M61.576 19.6069C61.4403 19.4749 61.2205 19.4749 61.0855 19.6069C60.9498 19.739 60.9498 19.9527 61.0855 20.084L61.7203 20.7013C61.7881 20.7673 61.8768 20.8003 61.9655 20.8003C62.0542 20.8003 62.1429 20.7673 62.2108 20.7013C62.3465 20.5693 62.3465 20.3555 62.2108 20.2243L61.576 19.6069Z" fill="#FF6F00"/>
<path d="M61.6432 18.7518C61.4511 18.7518 61.2961 18.9026 61.2961 19.0894C61.2961 19.2761 61.4511 19.4269 61.6432 19.4269H62.5409C62.7329 19.4269 62.888 19.2761 62.888 19.0894C62.888 18.9026 62.7329 18.7518 62.5409 18.7518H61.6432Z" fill="#FF6F00"/>
<path d="M61.3208 18.6903C61.4095 18.6903 61.4982 18.6573 61.566 18.5913L62.2008 17.974C62.3365 17.842 62.3365 17.6282 62.2008 17.497C62.065 17.3649 61.8452 17.3649 61.7102 17.497L61.0755 18.1143C60.9398 18.2463 60.9398 18.4601 61.0755 18.5913C61.1434 18.6573 61.2321 18.6903 61.3208 18.6903Z" fill="#FF6F00"/>
<path d="M60.5441 16.8376C60.352 16.8376 60.197 16.9884 60.197 17.1752V18.0483C60.197 18.235 60.352 18.3858 60.5441 18.3858C60.7361 18.3858 60.8912 18.235 60.8912 18.0483V17.1752C60.8912 16.9884 60.7361 16.8376 60.5441 16.8376Z" fill="#FF6F00"/>
<path d="M59.5415 18.6011C59.6094 18.6671 59.698 18.7001 59.7867 18.7001C59.8754 18.7001 59.9641 18.6671 60.032 18.6011C60.1677 18.4691 60.1677 18.2553 60.032 18.124L59.3973 17.5067C59.2615 17.3747 59.0417 17.3747 58.9067 17.5067C58.771 17.6387 58.771 17.8525 58.9067 17.9838L59.5415 18.6011Z" fill="#FF6F00"/>
<path d="M59.8206 19.0894C59.8206 18.9026 59.6656 18.7518 59.4736 18.7518H58.5758C58.3838 18.7518 58.2288 18.9026 58.2288 19.0894C58.2288 19.2761 58.3838 19.4269 58.5758 19.4269H59.4736C59.6656 19.4269 59.8206 19.2761 59.8206 19.0894Z" fill="#FF6F00"/>
<path d="M59.5507 19.616L58.916 20.2333C58.7802 20.3653 58.7802 20.5791 58.916 20.7103C58.9838 20.7763 59.0725 20.8093 59.1612 20.8093C59.2499 20.8093 59.3386 20.7763 59.4065 20.7103L60.0412 20.093C60.177 19.961 60.177 19.7472 60.0412 19.616C59.9055 19.484 59.6857 19.484 59.5507 19.616Z" fill="#FF6F00"/>
<path d="M26.9171 8.51331C26.725 8.51331 26.57 8.66407 26.57 8.85084V15.7515C26.57 15.9383 26.725 16.0891 26.9171 16.0891C27.1091 16.0891 27.2641 15.9383 27.2641 15.7515V8.85084C27.2641 8.66407 27.1091 8.51331 26.9171 8.51331Z" fill="#FF6F00"/>
</g>
<defs>
<clipPath id="clip0_389_1322">
<rect width="73" height="25" fill="white"/>
</clipPath>
</defs>
</svg>
