<svg width="66" height="21" viewBox="0 0 66 21" fill="none" xmlns="http://www.w3.org/2000/svg">
<g clip-path="url(#clip0_389_1844)">
<path d="M53.5199 16.1896L53.8988 15.8286C54.0441 15.6902 54.0441 15.466 53.8988 15.3284C53.7535 15.19 53.5183 15.19 53.3738 15.3284L52.995 15.6894L52.6062 15.3182C52.4609 15.1797 52.2265 15.1797 52.0812 15.3182C51.936 15.4566 51.936 15.6808 52.0812 15.8184L52.4708 16.1896L52.0911 16.5514C51.9459 16.6899 51.9459 16.914 52.0911 17.0517C52.1638 17.1209 52.2587 17.1555 52.3536 17.1555C52.4486 17.1555 52.5435 17.1209 52.6161 17.0517L52.9958 16.6899L53.3821 17.0587C53.4547 17.128 53.5496 17.1626 53.6446 17.1626C53.7395 17.1626 53.8344 17.128 53.907 17.0587C54.0523 16.9203 54.0523 16.6962 53.907 16.5585L53.5207 16.1896H53.5199Z" fill="#FF6F00"/>
<path d="M52.9949 13.6461C51.5233 13.6461 50.3264 14.7866 50.3264 16.1889C50.3264 17.5913 51.5233 18.7317 52.9949 18.7317C54.4666 18.7317 55.6635 17.5913 55.6635 16.1889C55.6635 14.7866 54.4666 13.6461 52.9949 13.6461ZM52.9949 18.0247C51.9327 18.0247 51.0693 17.2012 51.0693 16.1897C51.0693 15.1783 51.9335 14.3548 52.9949 14.3548C54.0564 14.3548 54.9206 15.1783 54.9206 16.1897C54.9206 17.2012 54.0564 18.0247 52.9949 18.0247Z" fill="#FF6F00"/>
<path d="M1.98678 17.7099H8.29698L8.30606 17.3647C8.31019 17.2113 8.31514 17.0564 8.32009 16.8983C8.33082 16.5632 8.34238 16.2171 8.34238 15.8616C8.34238 12.8689 10.897 10.4347 14.0377 10.4347C17.1783 10.4347 19.7329 12.8689 19.7329 15.8616C19.7329 16.2171 19.7445 16.5632 19.7552 16.8983C19.7602 17.0564 19.7659 17.2113 19.7692 17.3647L19.7783 17.7099H47.256L47.2651 17.3647C47.2692 17.2113 47.2741 17.0564 47.2791 16.8983C47.2898 16.5632 47.3014 16.2171 47.3014 15.8616C47.3014 12.8689 49.856 10.4347 52.9967 10.4347C56.1373 10.4347 58.6919 12.8689 58.6919 15.8616C58.6919 16.2171 58.7035 16.5632 58.7142 16.8983C58.7192 17.0564 58.7249 17.2113 58.7282 17.3647L58.7373 17.7099H64.2221C64.7207 17.7099 65.2217 17.4929 65.5287 17.1444C65.7887 16.8495 65.8944 16.4838 65.8259 16.1149L65.8234 16.1007L64.0042 9.47983L64.0001 9.46646C63.7467 8.66815 63.2506 8.20332 62.4805 8.04208L47.9122 5.22635L40.2904 1.70276C38.2178 0.64489 36.1263 0.0133172 34.6934 0.0133172H29.4182C29.3769 0.00309251 29.334 -0.00241311 29.2894 0.00151947C29.2672 0.00309251 29.2457 0.00781161 29.2242 0.0133172H21.6107C20.4585 0.0133172 17.7445 0.901295 17.1197 1.13961L8.14593 4.53579L3.41555 5.20905C2.56951 5.33489 1.99091 5.88781 1.8671 6.68613L0.381372 16.1235L0.379721 16.1346C0.332673 16.516 0.457309 16.888 0.732168 17.1822C1.04004 17.5125 1.5097 17.7099 1.98678 17.7099ZM2.3318 8.5077H4.14603L3.69784 10.9907C3.66317 11.1834 3.79854 11.3667 4.00076 11.3997C4.02222 11.4029 4.04286 11.4052 4.06432 11.4052C4.24178 11.4052 4.39861 11.2833 4.42997 11.1111L4.95245 8.21433C4.97144 8.1113 4.94089 8.0059 4.87074 7.92646C4.79975 7.84703 4.69658 7.80062 4.5868 7.80062H2.44323L2.60253 6.78995C2.61161 6.73096 2.62482 6.67433 2.64132 6.62085H9.4575C9.66302 6.62085 9.82893 6.46276 9.82893 6.26691C9.82893 6.07107 9.66302 5.91298 9.4575 5.91298H3.50635C3.51377 5.91141 3.52038 5.90983 3.52781 5.90905L8.29781 5.23028L8.3399 5.22399L17.3946 1.79714C18.239 1.47545 20.6912 0.721182 21.6107 0.721182H28.9816C29.1599 2.68433 30.0562 12.5858 30.1058 13.3786C30.1272 13.7247 30.0538 13.9858 29.8862 14.1549C29.7211 14.3216 29.457 14.4066 29.1012 14.4066H27.2854C27.0798 14.4066 26.9139 14.5647 26.9139 14.7605C26.9139 14.9564 27.0798 15.1144 27.2854 15.1144H29.1012C29.6617 15.1144 30.1198 14.9508 30.4268 14.6402C30.7355 14.3279 30.8808 13.8773 30.8478 13.3369C30.7975 12.5315 29.9209 2.85107 29.7277 0.721182H34.6934C36.0107 0.721182 37.9735 1.32287 39.9446 2.3304L47.6712 5.90276L58.6218 8.01927L51.6545 7.6559C51.449 7.6441 51.2749 7.79512 51.2633 7.99017C51.2518 8.18523 51.4094 8.35197 51.6141 8.36298L62.6745 8.9395C62.6811 8.9395 62.6885 8.9395 62.6951 8.9395C62.7298 8.9395 62.7628 8.93321 62.7942 8.92534C63.0187 9.08029 63.1747 9.3186 63.2861 9.66545L63.4652 10.3167H61.4562C61.3365 10.3167 61.2243 10.3717 61.1541 10.4646C61.0848 10.5574 61.0658 10.6761 61.1046 10.7847L61.8747 12.9476C61.9275 13.0947 62.072 13.1875 62.2263 13.1875C62.2659 13.1875 62.3064 13.1812 62.346 13.1686C62.54 13.1057 62.644 12.9051 62.5787 12.7195L61.9746 11.0246H63.6592L64.6101 14.4852H62.6935C62.488 14.4852 62.322 14.6433 62.322 14.8392C62.322 15.035 62.488 15.1931 62.6935 15.1931H64.804L65.0946 16.2502C65.1202 16.409 65.0739 16.5569 64.9576 16.689C64.79 16.8794 64.5011 17.0021 64.2205 17.0021H59.4596C59.4579 16.9604 59.4571 16.9179 59.4554 16.8755C59.4447 16.5459 59.4331 16.2061 59.4331 15.8616C59.4331 12.4788 56.5451 9.7268 52.995 9.7268C49.4449 9.7268 46.5569 12.4788 46.5569 15.8616C46.5569 16.2061 46.5453 16.5467 46.5346 16.8755C46.5329 16.9179 46.5321 16.9596 46.5304 17.0021H20.5022C20.5006 16.9604 20.4997 16.9179 20.4981 16.8755C20.4873 16.5459 20.4758 16.2061 20.4758 15.8616C20.4758 12.4788 17.5877 9.7268 14.0377 9.7268C10.4876 9.7268 7.59952 12.4788 7.59952 15.8616C7.59952 16.2061 7.58796 16.5467 7.57723 16.8755C7.57558 16.9179 7.57475 16.9596 7.5731 17.0021H1.98678C1.71852 17.0021 1.45687 16.8935 1.28684 16.7119C1.19439 16.6128 1.09039 16.4484 1.11681 16.2226L1.27858 15.1931H4.75105C4.95658 15.1931 5.12248 15.035 5.12248 14.8392C5.12248 14.6433 4.95658 14.4852 4.75105 14.4852H1.39084L2.3318 8.5077Z" fill="#FF6F00"/>
<path d="M44.9094 8.40319C44.9127 8.44409 45.2395 12.5002 45.294 13.3787C45.3155 13.7248 45.242 13.9859 45.0744 14.155C44.9094 14.3217 44.6452 14.4067 44.2895 14.4067H42.4736C42.2681 14.4067 42.1022 14.5648 42.1022 14.7606C42.1022 14.9565 42.2681 15.1145 42.4736 15.1145H44.2895C44.8499 15.1145 45.308 14.9509 45.6151 14.6403C45.9238 14.328 46.0691 13.8774 46.036 13.337C45.9807 12.453 45.6539 8.39061 45.6506 8.34971C45.6349 8.15466 45.4558 8.00758 45.2519 8.02409C45.0472 8.03904 44.8945 8.20892 44.9102 8.40398L44.9094 8.40319Z" fill="#FF6F00"/>
<path d="M21.2599 19.9909H17.1675C18.3586 19.11 19.1279 17.7344 19.1279 16.1897C19.1279 13.5367 16.863 11.3785 14.0789 11.3785C11.2948 11.3785 9.0299 13.5367 9.0299 16.1897C9.0299 17.7344 9.79835 19.11 10.9902 19.9909H0.371431C0.165906 19.9909 0 20.149 0 20.3448C0 20.5407 0.165906 20.6988 0.371431 20.6988H12.3208C12.8688 20.893 13.4607 21 14.0789 21C14.6971 21 15.2889 20.893 15.837 20.6988H21.2599C21.4654 20.6988 21.6313 20.5407 21.6313 20.3448C21.6313 20.149 21.4654 19.9909 21.2599 19.9909ZM14.0789 20.2921C11.705 20.2921 9.77276 18.4517 9.77276 16.1889C9.77276 13.9261 11.7042 12.0856 14.0789 12.0856C16.4536 12.0856 18.385 13.9261 18.385 16.1889C18.385 18.4517 16.4536 20.2921 14.0789 20.2921Z" fill="#FF6F00"/>
<path d="M14.6039 16.1896L14.9828 15.8286C15.128 15.6902 15.128 15.466 14.9828 15.3284C14.8375 15.19 14.6023 15.19 14.4578 15.3284L14.0789 15.6894L13.6902 15.3182C13.5449 15.1797 13.3097 15.1797 13.1652 15.3182C13.02 15.4566 13.02 15.6808 13.1652 15.8184L13.5548 16.1896L13.1751 16.5514C13.0299 16.6899 13.0299 16.914 13.1751 17.0517C13.2478 17.1209 13.3427 17.1555 13.4376 17.1555C13.5325 17.1555 13.6275 17.1209 13.7001 17.0517L14.0798 16.6899L14.4661 17.0587C14.5387 17.128 14.6336 17.1626 14.7285 17.1626C14.8235 17.1626 14.9184 17.128 14.991 17.0587C15.1363 16.9203 15.1363 16.6962 14.991 16.5585L14.6047 16.1896H14.6039Z" fill="#FF6F00"/>
<path d="M14.0789 13.6461C12.6072 13.6461 11.4104 14.7866 11.4104 16.1889C11.4104 17.5913 12.6072 18.7317 14.0789 18.7317C15.5506 18.7317 16.7475 17.5913 16.7475 16.1889C16.7475 14.7866 15.5506 13.6461 14.0789 13.6461ZM14.0789 18.0247C13.0166 18.0247 12.1533 17.2012 12.1533 16.1897C12.1533 15.1783 13.0175 14.3548 14.0789 14.3548C15.1404 14.3548 16.0046 15.1783 16.0046 16.1897C16.0046 17.2012 15.1404 18.0247 14.0789 18.0247Z" fill="#FF6F00"/>
<path d="M65.6286 19.9909H56.0828C57.2739 19.11 58.0432 17.7344 58.0432 16.1897C58.0432 13.5367 55.7782 11.3785 52.9942 11.3785C50.2101 11.3785 47.9452 13.5367 47.9452 16.1897C47.9452 17.7344 48.7145 19.11 49.9055 19.9909H45.483C45.2775 19.9909 45.1116 20.149 45.1116 20.3448C45.1116 20.5407 45.2775 20.6988 45.483 20.6988H51.2361C51.7841 20.893 52.3759 21 52.9942 21C53.6124 21 54.2042 20.893 54.7523 20.6988H65.6286C65.8341 20.6988 66 20.5407 66 20.3448C66 20.149 65.8341 19.9909 65.6286 19.9909ZM52.995 20.2921C50.6211 20.2921 48.6889 18.4517 48.6889 16.1889C48.6889 13.9261 50.6203 12.0856 52.995 12.0856C55.3697 12.0856 57.3011 13.9261 57.3011 16.1889C57.3011 18.4517 55.3697 20.2921 52.995 20.2921Z" fill="#FF6F00"/>
<path d="M14.1615 8.66502H17.7932C17.9988 8.66502 18.1647 8.50693 18.1647 8.31109C18.1647 8.11524 17.9988 7.95715 17.7932 7.95715H14.1615C13.9559 7.95715 13.79 8.11524 13.79 8.31109C13.79 8.50693 13.9559 8.66502 14.1615 8.66502Z" fill="#FF6F00"/>
<path d="M36.3648 7.95715H32.733C32.5275 7.95715 32.3616 8.11524 32.3616 8.31109C32.3616 8.50693 32.5275 8.66502 32.733 8.66502H36.3648C36.5703 8.66502 36.7362 8.50693 36.7362 8.31109C36.7362 8.11524 36.5703 7.95715 36.3648 7.95715Z" fill="#FF6F00"/>
<path d="M15.0281 6.54144H26.7488C27.2267 6.54144 27.7022 6.33222 28.0191 5.98144C28.2882 5.68413 28.4079 5.32548 28.3559 4.96919L28.1925 2.94863C28.1842 2.10941 27.4653 1.42908 26.5829 1.42908H23.4464C21.8104 1.42908 20.0746 2.18807 19.3582 2.66941C19.2624 2.72919 18.1292 3.42998 17.0206 4.1575C16.3405 4.60346 15.8015 4.97312 15.4185 5.2547C14.7334 5.75885 14.5205 5.97515 14.6105 6.26222C14.6501 6.39121 14.783 6.54144 15.0273 6.54144H15.0281ZM19.7701 3.26009L19.7833 3.25144C20.4683 2.78896 22.0581 2.13694 23.448 2.13694H26.5846C27.0625 2.13694 27.4512 2.50739 27.4512 2.96278L27.6172 5.03447L27.6205 5.05964C27.6526 5.26728 27.5321 5.43638 27.4579 5.51896C27.2829 5.71245 27.0113 5.83357 26.7497 5.83357H15.8469C16.6715 5.22795 18.2752 4.18267 19.7701 3.26009Z" fill="#FF6F00"/>
<path d="M32.9698 6.8561H44.8556C45.0859 6.8561 45.2254 6.71216 45.2617 6.56902C45.3418 6.25677 45.0975 6.08059 44.1012 5.51823C43.5597 5.21306 42.8012 4.80722 41.847 4.31329C40.2259 3.47408 38.5751 2.65688 38.5586 2.64823L38.533 2.63643C37.5269 2.22823 34.9079 1.42834 33.4147 1.42834H32.4754C31.5881 1.42834 30.8353 2.11655 30.8353 2.96205V2.99745L31.352 5.3861C31.5113 6.27879 32.1551 6.85531 32.9706 6.85531L32.9698 6.8561ZM32.4746 2.137H33.4139C34.7321 2.137 37.2017 2.86924 38.2285 3.28295C40.3085 4.3125 42.5659 5.4734 43.7628 6.14823H32.9698C32.4416 6.14823 32.1733 5.69127 32.0982 5.26419L31.6087 2.93138C31.6261 2.49093 32.0082 2.13778 32.4746 2.13778V2.137Z" fill="#FF6F00"/>
</g>
<defs>
<clipPath id="clip0_389_1844">
<rect width="66" height="21" fill="white"/>
</clipPath>
</defs>
</svg>
