<svg width="75" height="29" viewBox="0 0 75 29" fill="none" xmlns="http://www.w3.org/2000/svg">
<g clip-path="url(#clip0_389_2075)">
<path d="M16.9289 17.1066C14.3771 17.1066 12.3014 19.0526 12.3014 21.4451C12.3014 23.8375 14.3771 25.7836 16.9289 25.7836C19.4808 25.7836 21.5565 23.8367 21.5565 21.4451C21.5565 19.0534 19.4808 17.1066 16.9289 17.1066ZM16.9289 25.0472C14.8104 25.0472 13.0876 23.4312 13.0876 21.4459C13.0876 19.4605 14.8113 17.8445 16.9289 17.8445C19.0466 17.8445 20.7702 19.4605 20.7702 21.4459C20.7702 23.4312 19.0466 25.0472 16.9289 25.0472Z" fill="#FF6F00"/>
<path d="M5.76587 18.5514C5.76587 19.4319 6.53028 20.1486 7.46942 20.1486H7.58037C7.73762 20.1486 7.88002 20.0609 7.94205 19.925C9.73821 15.9927 10.7306 13.8231 10.9752 13.2915C11.3605 12.4561 11.9651 12.2849 12.7548 12.2849H19.9185C20.4715 12.2849 20.9196 12.3619 21.6473 13.3537C22.1208 13.9983 24.4866 17.3147 26.3885 19.9839C26.461 20.0863 26.5842 20.1477 26.7152 20.1477H51.9601C52.1174 20.1477 52.2598 20.0601 52.3218 19.9241C54.1179 15.9919 55.1104 13.8222 55.355 13.2907C55.7402 12.4553 56.3448 12.2841 57.1345 12.2841H64.2982C64.8512 12.2841 65.2994 12.3611 66.0271 13.3529C66.1581 13.5307 66.4359 13.9172 66.8789 14.5348C66.9811 14.6773 67.175 14.7347 67.3454 14.6732C67.5157 14.6118 67.6197 14.448 67.5943 14.2776L66.919 9.75813C66.9033 8.89321 66.1511 8.19375 65.2268 8.18801L49.0632 7.37961L44.3229 0.175276C44.2513 0.0663428 44.1246 0 43.9883 0H9.74083C8.81741 0 8.06261 0.692914 8.03815 1.55291L7.52446 3.66442C7.30955 3.01327 6.66133 2.53823 5.89691 2.53823H1.70355C0.764415 2.53905 0 3.25571 0 4.13619V14.9476C0 15.8281 0.764415 16.5448 1.70355 16.5448H5.76587V18.5514ZM8.81392 1.67905C8.82003 1.65202 8.82353 1.62499 8.82353 1.59714C8.82353 1.12291 9.235 0.737142 9.74083 0.737142H32.9458C32.9397 0.763352 32.9353 0.7912 32.9353 0.819047V14.7977C32.9353 15.711 32.7938 16.2573 32.4758 16.571C32.1447 16.8978 31.5271 17.0501 30.5329 17.0501C30.3154 17.0501 30.1398 17.2147 30.1398 17.4187C30.1398 17.6226 30.3154 17.7872 30.5329 17.7872C32.8873 17.7872 33.7216 17.0051 33.7216 14.7977V0.819047C33.7216 0.7912 33.7172 0.763352 33.7111 0.737142H43.7691L48.5023 7.93329C48.5696 8.03649 48.6875 8.1012 48.816 8.10775L63.774 8.85554V10.7287C63.774 10.9326 63.9496 11.0973 64.1671 11.0973C64.3847 11.0973 64.5603 10.9326 64.5603 10.7287V8.89485L65.1945 8.9268C65.2015 8.9268 65.2085 8.9268 65.2155 8.9268C65.7213 8.9268 66.1328 9.31257 66.1328 9.78679C66.1328 9.80399 66.1337 9.82119 66.1363 9.83758L66.5809 12.8107C65.7746 11.7632 65.1054 11.5477 64.2982 11.5477H57.1345C56.3483 11.5477 55.2327 11.6985 54.6334 12.9983C54.3931 13.5208 53.433 15.6184 51.7015 19.4106H26.9257C25.044 16.7692 22.7612 13.5708 22.2956 12.936C21.4473 11.7804 20.7571 11.5477 19.9185 11.5477H12.7548C11.9685 11.5477 10.8529 11.6985 10.2536 12.9983C10.0134 13.52 9.05504 15.6151 7.32615 19.4C6.88847 19.3352 6.55213 18.979 6.55213 18.5506V10.9818L6.73296 10.2373H7.94991V13.4316H7.16366C6.94613 13.4316 6.77053 13.5962 6.77053 13.8001C6.77053 14.0041 6.94613 14.1687 7.16366 14.1687H8.73617V10.2373H13.6284C13.846 10.2373 14.0215 10.0726 14.0215 9.8687C14.0215 9.66476 13.846 9.50013 13.6284 9.50013H6.91206L7.58911 6.71537H7.60047V6.6695L8.81392 1.67823V1.67905ZM1.70355 15.8076C1.19773 15.8076 0.786255 15.4218 0.786255 14.9476V4.13619C0.786255 3.66196 1.19773 3.27619 1.70355 3.27619H5.89691C6.40274 3.27619 6.81421 3.66196 6.81421 4.13619V6.58678L5.77548 10.8589C5.76936 10.886 5.76587 10.913 5.76587 10.9408V15.8068H1.70355V15.8076Z" fill="#FF6F00"/>
<path d="M34.5952 10.2381H38.2644C38.4819 10.2381 38.6575 10.0735 38.6575 9.86955C38.6575 9.6656 38.4819 9.50098 38.2644 9.50098H34.5952C34.3777 9.50098 34.2021 9.6656 34.2021 9.86955C34.2021 10.0735 34.3777 10.2381 34.5952 10.2381Z" fill="#FF6F00"/>
<path d="M26.9948 9.50098H23.3256C23.108 9.50098 22.9324 9.6656 22.9324 9.86955C22.9324 10.0735 23.108 10.2381 23.3256 10.2381H26.9948C27.2123 10.2381 27.3879 10.0735 27.3879 9.86955C27.3879 9.6656 27.2123 9.50098 26.9948 9.50098Z" fill="#FF6F00"/>
<path d="M45.6028 16.8723H38.3518C38.1342 16.8723 37.9586 17.037 37.9586 17.2409C37.9586 17.4449 38.1342 17.6095 38.3518 17.6095H45.6028C46.4991 17.6095 47.2033 17.3597 47.6951 16.8666C48.4289 16.1311 48.4054 15.1188 48.3984 14.9787V9.91044C48.3984 9.7065 48.2228 9.54187 48.0052 9.54187C47.7877 9.54187 47.6121 9.7065 47.6121 9.91044V14.9885C47.6121 14.9959 47.6121 15.0041 47.6121 15.0115C47.6121 15.0197 47.6567 15.8297 47.1159 16.367C46.7787 16.702 46.2694 16.8723 45.6019 16.8723H45.6028Z" fill="#FF6F00"/>
<path d="M24.0681 8.51804H30.2708C31.21 8.51804 31.9744 7.80138 31.9744 6.9209V2.98948C31.9744 2.109 31.21 1.39233 30.2708 1.39233H24.0681C23.129 1.39233 22.3646 2.109 22.3646 2.98948V6.9209C22.3646 7.80138 23.129 8.51804 24.0681 8.51804ZM23.1508 2.98948C23.1508 2.51525 23.5623 2.12948 24.0681 2.12948H30.2708C30.7766 2.12948 31.1881 2.51525 31.1881 2.98948V6.9209C31.1881 7.39513 30.7766 7.7809 30.2708 7.7809H24.0681C23.5623 7.7809 23.1508 7.39513 23.1508 6.9209V2.98948Z" fill="#FF6F00"/>
<path d="M11.9249 8.51804H19.2633C20.2024 8.51804 20.9668 7.80138 20.9668 6.9209V2.98948C20.9668 2.109 20.2024 1.39233 19.2633 1.39233H12.9584C12.0079 1.39233 11.1718 2.05249 11.0137 2.92149L10.2274 6.85292C10.2274 6.85292 10.2266 6.85865 10.2257 6.86111C10.1558 7.26244 10.2676 7.64985 10.5411 7.95126C10.8626 8.30591 11.3797 8.51722 11.924 8.51722L11.9249 8.51804ZM11.0015 6.98397L11.7877 3.0509C11.8812 2.53409 12.3958 2.12948 12.9584 2.12948H19.2633C19.7691 2.12948 20.1806 2.51525 20.1806 2.98948V6.9209C20.1806 7.39513 19.7691 7.7809 19.2633 7.7809H11.9249C11.613 7.7809 11.3125 7.66378 11.1412 7.47458C11.0172 7.3378 10.97 7.17235 11.0023 6.98397H11.0015Z" fill="#FF6F00"/>
<path d="M36.2988 8.51804H44.4234C44.9782 8.51804 45.5495 8.25595 45.8789 7.8497C46.1331 7.53683 46.2161 7.17235 46.113 6.82262C46.1086 6.80787 46.1034 6.79313 46.0973 6.77921L44.3509 2.84942C43.956 1.95092 43.1977 1.39233 42.3713 1.39233H36.2997C35.3605 1.39233 34.5961 2.109 34.5961 2.98948V6.9209C34.5961 7.80138 35.3605 8.51804 36.2997 8.51804H36.2988ZM35.3815 2.98948C35.3815 2.51525 35.793 2.12948 36.2988 2.12948H42.3704C42.9697 2.12948 43.4109 2.6463 43.6232 3.13117L45.3591 7.03803C45.3879 7.15843 45.3521 7.28128 45.2525 7.40332C45.0716 7.62528 44.7309 7.7809 44.4225 7.7809H36.2979C35.7921 7.7809 35.3806 7.39513 35.3806 6.9209V2.98948H35.3815Z" fill="#FF6F00"/>
<path d="M30.3145 26.2095H23.1788C24.3092 24.9089 24.988 23.2495 24.988 21.4451C24.988 17.2794 21.373 13.8894 16.9289 13.8894C12.4848 13.8894 8.86982 17.2786 8.86982 21.4451C8.86982 23.2503 9.54862 24.9089 10.6791 26.2095H3.31973C3.1022 26.2095 2.92661 26.3741 2.92661 26.5781C2.92661 26.782 3.1022 26.9467 3.31973 26.9467H11.357C11.3745 26.9467 11.3902 26.9442 11.4068 26.9417C12.85 28.217 14.7938 29 16.9289 29C19.0641 29 21.0035 28.2186 22.4458 26.9467H30.3136C30.5311 26.9467 30.7067 26.782 30.7067 26.5781C30.7067 26.3741 30.5311 26.2095 30.3136 26.2095H30.3145ZM9.65695 21.4451C9.65695 17.6857 12.919 14.6265 16.9298 14.6265C20.9406 14.6265 24.2027 17.6849 24.2027 21.4451C24.2027 23.3281 23.3841 25.035 22.0641 26.2701C22.0247 26.2939 21.9907 26.325 21.9627 26.3602C20.6549 27.5372 18.8823 28.2637 16.9298 28.2637C12.9199 28.2637 9.65695 25.2054 9.65695 21.4451Z" fill="#FF6F00"/>
<path d="M16.9045 22.4149C16.6869 22.4149 16.5114 22.5795 16.5114 22.7835V23.9023C16.5114 24.1062 16.6869 24.2709 16.9045 24.2709C17.122 24.2709 17.2976 24.1062 17.2976 23.9023V22.7835C17.2976 22.5795 17.122 22.4149 16.9045 22.4149Z" fill="#FF6F00"/>
<path d="M18.2228 22.1217C18.069 21.9775 17.82 21.9775 17.6672 22.1217C17.5134 22.2658 17.5134 22.4992 17.6672 22.6426L18.5111 23.4338C18.5879 23.5059 18.6884 23.5419 18.7889 23.5419C18.8893 23.5419 18.9898 23.5059 19.0667 23.4338C19.2204 23.2896 19.2204 23.0562 19.0667 22.9129L18.2228 22.1217Z" fill="#FF6F00"/>
<path d="M19.555 21.0496H18.3617C18.1441 21.0496 17.9686 21.2142 17.9686 21.4181C17.9686 21.6221 18.1441 21.7867 18.3617 21.7867H19.555C19.7726 21.7867 19.9482 21.6221 19.9482 21.4181C19.9482 21.2142 19.7726 21.0496 19.555 21.0496Z" fill="#FF6F00"/>
<path d="M17.9327 20.8382C18.0332 20.8382 18.1337 20.8021 18.2105 20.73L19.0544 19.9388C19.2082 19.7947 19.2082 19.5613 19.0544 19.4179C18.9007 19.2738 18.6517 19.2738 18.4988 19.4179L17.6549 20.2091C17.5012 20.3533 17.5012 20.5867 17.6549 20.73C17.7318 20.8021 17.8323 20.8382 17.9327 20.8382Z" fill="#FF6F00"/>
<path d="M16.9045 20.4484C17.122 20.4484 17.2976 20.2837 17.2976 20.0798V18.961C17.2976 18.757 17.122 18.5924 16.9045 18.5924C16.6869 18.5924 16.5114 18.757 16.5114 18.961V20.0798C16.5114 20.2837 16.6869 20.4484 16.9045 20.4484Z" fill="#FF6F00"/>
<path d="M15.615 20.7424C15.6919 20.8144 15.7924 20.8505 15.8928 20.8505C15.9933 20.8505 16.0938 20.8144 16.1706 20.7424C16.3244 20.5982 16.3244 20.3648 16.1706 20.2215L15.3267 19.4303C15.173 19.2861 14.924 19.2861 14.7711 19.4303C14.6174 19.5744 14.6174 19.8078 14.7711 19.9512L15.615 20.7424Z" fill="#FF6F00"/>
<path d="M15.8701 21.4181C15.8701 21.2142 15.6945 21.0496 15.477 21.0496H14.2836C14.0661 21.0496 13.8905 21.2142 13.8905 21.4181C13.8905 21.6221 14.0661 21.7867 14.2836 21.7867H15.477C15.6945 21.7867 15.8701 21.6221 15.8701 21.4181Z" fill="#FF6F00"/>
<path d="M15.6273 22.1331L14.7833 22.9243C14.6296 23.0685 14.6296 23.3019 14.7833 23.4453C14.8602 23.5173 14.9607 23.5534 15.0612 23.5534C15.1616 23.5534 15.2621 23.5173 15.339 23.4453L16.1829 22.6541C16.3366 22.5099 16.3366 22.2765 16.1829 22.1331C16.0291 21.989 15.7801 21.989 15.6273 22.1331Z" fill="#FF6F00"/>
<path d="M61.2213 17.1066C58.6695 17.1066 56.5938 19.0526 56.5938 21.4451C56.5938 23.8375 58.6695 25.7836 61.2213 25.7836C63.7731 25.7836 65.8489 23.8367 65.8489 21.4451C65.8489 19.0534 63.7731 17.1066 61.2213 17.1066ZM61.2213 25.0472C59.1028 25.0472 57.38 23.4312 57.38 21.4459C57.38 19.4605 59.1037 17.8445 61.2213 17.8445C63.339 17.8445 65.0626 19.4605 65.0626 21.4459C65.0626 23.4312 63.339 25.0472 61.2213 25.0472Z" fill="#FF6F00"/>
<path d="M74.6069 26.2095H67.4712C68.6016 24.9089 69.2804 23.2495 69.2804 21.4451C69.2804 17.2794 65.6654 13.8894 61.2213 13.8894C56.7772 13.8894 53.1622 17.2786 53.1622 21.4451C53.1622 23.2503 53.841 24.9089 54.9715 26.2095H47.6112C47.3937 26.2095 47.2181 26.3741 47.2181 26.5781C47.2181 26.782 47.3937 26.9467 47.6112 26.9467H55.6485C55.6651 26.9467 55.6817 26.9442 55.6983 26.9417C57.1415 28.217 59.0853 29 61.2204 29C63.3556 29 65.295 28.2186 66.7373 26.9467H74.6051C74.8227 26.9467 74.9982 26.782 74.9982 26.5781C74.9982 26.3741 74.8227 26.2095 74.6051 26.2095H74.6069ZM53.9493 21.4451C53.9493 17.6857 57.2114 14.6265 61.2222 14.6265C65.233 14.6265 68.495 17.6849 68.495 21.4451C68.495 23.3281 67.6765 25.035 66.3564 26.2701C66.3171 26.2939 66.2831 26.325 66.2551 26.3602C64.9473 27.5372 63.1747 28.2637 61.2222 28.2637C57.2123 28.2637 53.9493 25.2054 53.9493 21.4451Z" fill="#FF6F00"/>
<path d="M61.1969 22.4149C60.9793 22.4149 60.8037 22.5795 60.8037 22.7835V23.9023C60.8037 24.1062 60.9793 24.2709 61.1969 24.2709C61.4144 24.2709 61.59 24.1062 61.59 23.9023V22.7835C61.59 22.5795 61.4144 22.4149 61.1969 22.4149Z" fill="#FF6F00"/>
<path d="M62.5152 22.1217C62.3614 21.9775 62.1124 21.9775 61.9595 22.1217C61.8058 22.2658 61.8058 22.4992 61.9595 22.6426L62.8034 23.4338C62.8803 23.5059 62.9808 23.5419 63.0813 23.5419C63.1817 23.5419 63.2822 23.5059 63.3591 23.4338C63.5128 23.2896 63.5128 23.0562 63.3591 22.9129L62.5152 22.1217Z" fill="#FF6F00"/>
<path d="M63.8474 21.0496H62.6541C62.4365 21.0496 62.2609 21.2142 62.2609 21.4181C62.2609 21.6221 62.4365 21.7867 62.6541 21.7867H63.8474C64.0649 21.7867 64.2405 21.6221 64.2405 21.4181C64.2405 21.2142 64.0649 21.0496 63.8474 21.0496Z" fill="#FF6F00"/>
<path d="M62.2251 20.8382C62.3256 20.8382 62.426 20.8021 62.5029 20.73L63.3468 19.9388C63.5006 19.7947 63.5006 19.5613 63.3468 19.4179C63.1931 19.2738 62.9441 19.2738 62.7912 19.4179L61.9473 20.2091C61.7935 20.3533 61.7935 20.5867 61.9473 20.73C62.0242 20.8021 62.1246 20.8382 62.2251 20.8382Z" fill="#FF6F00"/>
<path d="M61.1969 20.4484C61.4144 20.4484 61.59 20.2837 61.59 20.0798V18.961C61.59 18.757 61.4144 18.5924 61.1969 18.5924C60.9793 18.5924 60.8037 18.757 60.8037 18.961V20.0798C60.8037 20.2837 60.9793 20.4484 61.1969 20.4484Z" fill="#FF6F00"/>
<path d="M59.9083 20.7424C59.9851 20.8144 60.0856 20.8505 60.1861 20.8505C60.2865 20.8505 60.387 20.8144 60.4639 20.7424C60.6176 20.5982 60.6176 20.3648 60.4639 20.2215L59.62 19.4303C59.4662 19.2861 59.2172 19.2861 59.0644 19.4303C58.9106 19.5744 58.9106 19.8078 59.0644 19.9512L59.9083 20.7424Z" fill="#FF6F00"/>
<path d="M60.1625 21.4181C60.1625 21.2142 59.9869 21.0496 59.7694 21.0496H58.576C58.3585 21.0496 58.1829 21.2142 58.1829 21.4181C58.1829 21.6221 58.3585 21.7867 58.576 21.7867H59.7694C59.9869 21.7867 60.1625 21.6221 60.1625 21.4181Z" fill="#FF6F00"/>
<path d="M59.9196 22.1331L59.0757 22.9243C58.9219 23.0685 58.9219 23.3019 59.0757 23.4453C59.1526 23.5173 59.2531 23.5534 59.3535 23.5534C59.454 23.5534 59.5545 23.5173 59.6313 23.4453L60.4752 22.6541C60.629 22.5099 60.629 22.2765 60.4752 22.1331C60.3215 21.989 60.0725 21.989 59.9196 22.1331Z" fill="#FF6F00"/>
</g>
<defs>
<clipPath id="clip0_389_2075">
<rect width="75" height="29" fill="white"/>
</clipPath>
</defs>
</svg>
